<svg xmlns="http://www.w3.org/2000/svg" width="33.008" height="19.651" viewBox="0 0 33.008 19.651">
  <path id="Path_16" data-name="Path 16" d="M-15.847-1.3a3.171,3.171,0,0,1-.167-1.191,11.132,11.132,0,0,1,.2-1.683,16.1,16.1,0,0,1,.549-2.109,16.316,16.316,0,0,1,2.32-4.614.694.694,0,0,1,.532-.343,1.294,1.294,0,0,1,.545.123,2.126,2.126,0,0,1,.47.29q.51.422.334.686Q-12.3-8.156-13.1-6.557A6.557,6.557,0,0,0-9.58-7.822a3.6,3.6,0,0,0,1.661-2.971A1.441,1.441,0,0,0-9.1-12.3a3.336,3.336,0,0,0-.857-.1,5.5,5.5,0,0,0-1.028.1,6.833,6.833,0,0,0-1.024.277,7.323,7.323,0,0,0-1.784.949.734.734,0,0,1-.422.167,1.051,1.051,0,0,1-.422-.1,1.65,1.65,0,0,1-.4-.25q-.686-.58.193-1.2a8.054,8.054,0,0,1,3.762-1.16q.466-.044,1.244-.044a5.3,5.3,0,0,1,1.591.255,3.587,3.587,0,0,1,1.305.686,2.861,2.861,0,0,1,.905,2.25A4.056,4.056,0,0,1-7.066-7.91a7.038,7.038,0,0,1-2.426,1.9,2.336,2.336,0,0,1,1.068.883,2.143,2.143,0,0,1,.338,1.222,3.172,3.172,0,0,1-.259,1.2A3.593,3.593,0,0,1-9-1.709a4.6,4.6,0,0,1-.949.782,6.118,6.118,0,0,1-1.138.558,7.024,7.024,0,0,1-2.479.457A2.171,2.171,0,0,1-15.847-1.3Zm2.127-3.832a8.616,8.616,0,0,0-.7,2.892,1.21,1.21,0,0,0,.294.918A1.14,1.14,0,0,0-13.271-1a2.963,2.963,0,0,0,1.125-.237,4.022,4.022,0,0,0,1.063-.642A2.838,2.838,0,0,0-9.94-3.99a1.4,1.4,0,0,0-.967-1.459,2.5,2.5,0,0,0-.642-.149,5.943,5.943,0,0,0-1.156.211Q-13.447-5.194-13.72-5.133ZM-5.854-.352a1.715,1.715,0,0,1-.356-.584,2.3,2.3,0,0,1-.136-.826A5.094,5.094,0,0,1-6.13-3.023q.215-.791.549-1.8l.738-2.188A33.871,33.871,0,0,0-3.023-14.08q.079-.738.721-.738a1.1,1.1,0,0,1,.668.193,1.036,1.036,0,0,1,.492.861,6.706,6.706,0,0,1-.167,1.156q-.149.681-.387,1.485t-.545,1.7L-3.454-5.854A16.651,16.651,0,0,0-4.5-1.925q0,.475.387.475a1.431,1.431,0,0,0,.672-.158,1.233,1.233,0,0,1,.391-.158.163.163,0,0,1,.185.185,1.54,1.54,0,0,1-.8,1.31,1.8,1.8,0,0,1-.98.36,2.021,2.021,0,0,1-.716-.105A1.362,1.362,0,0,1-5.854-.352ZM-.439-.6a2.429,2.429,0,0,1-.58-.892,3.633,3.633,0,0,1-.22-1.279,5.854,5.854,0,0,1,.18-1.494A7.268,7.268,0,0,1-.523-5.722,7.363,7.363,0,0,1,.312-7.04,6.316,6.316,0,0,1,1.389-8.112,4.324,4.324,0,0,1,4.052-9.1,2.413,2.413,0,0,1,6.5-7.506,4.54,4.54,0,0,1,6.557-4.72,7.232,7.232,0,0,1,5.2-1.96,5.452,5.452,0,0,1,2.9-.176,3.562,3.562,0,0,1,1.586.088,3.664,3.664,0,0,1,.435-.079,2.293,2.293,0,0,1-.439-.6ZM1.239-4.86A8.506,8.506,0,0,0,.822-3.524a5.563,5.563,0,0,0-.145,1.3,2.174,2.174,0,0,0,.189.958.611.611,0,0,0,.584.347,1.365,1.365,0,0,0,.8-.277,3.861,3.861,0,0,0,.76-.734A7,7,0,0,0,3.7-2.988a10.046,10.046,0,0,0,.571-1.248A6.9,6.9,0,0,0,4.79-6.75q0-.967-.4-1.23a.8.8,0,0,0-.444-.105,1.188,1.188,0,0,0-.655.259,3.95,3.95,0,0,0-.738.7A7.328,7.328,0,0,0,1.846-6.1,9.714,9.714,0,0,0,1.239-4.86ZM13.148-1.916a3.69,3.69,0,0,1-2.962,2A1.971,1.971,0,0,1,8.209-1.477a4.275,4.275,0,0,1-.176-1.318,5.7,5.7,0,0,1,.224-1.569,7.14,7.14,0,0,1,.611-1.49,7.2,7.2,0,0,1,.91-1.3A6.779,6.779,0,0,1,10.9-8.174,4.164,4.164,0,0,1,13.377-9.1a1.806,1.806,0,0,1,1.758,1.151,2.807,2.807,0,0,0,.193-.233,2,2,0,0,1,.193-.224.627.627,0,0,1,.4-.229,1.164,1.164,0,0,1,.36.062,1.776,1.776,0,0,1,.365.167q.431.255.325.475a18.182,18.182,0,0,0-.809,2.057l-1.3,4.148q-1.538,4.72-3.9,6.1A2.938,2.938,0,0,1,9.879,4.8a1.948,1.948,0,0,1-.659,0,1.331,1.331,0,0,1-.36-.149q-.343-.22-.343-.4,0-.308.409-.378a2.611,2.611,0,0,0,.857-.33,4.911,4.911,0,0,0,.853-.628A9.8,9.8,0,0,0,13.148-1.916Zm-2.637-3.05a8.941,8.941,0,0,0-.36,1.3,5.809,5.809,0,0,0-.132,1.085,5.81,5.81,0,0,0,.026.642,1.246,1.246,0,0,0,.105.387.558.558,0,0,0,.519.369,1.146,1.146,0,0,0,.677-.242,4.359,4.359,0,0,0,.7-.664,8.581,8.581,0,0,0,.738-.993,13.55,13.55,0,0,0,.7-1.23A12.1,12.1,0,0,0,14.528-7.1a.976.976,0,0,0-.3-.5,1.4,1.4,0,0,0-.905-.483,1.525,1.525,0,0,0-.809.25,3.333,3.333,0,0,0-.769.677,6.08,6.08,0,0,0-.681.993A8.79,8.79,0,0,0,10.512-4.966Z" transform="translate(16.015 14.818)" fill="#11c4e0"/>
</svg>
