<svg xmlns="http://www.w3.org/2000/svg" id="prefix__brands-and-logotypes" width="22.065" height="22.065" viewBox="0 0 22.065 22.065">
    <path id="prefix__Path_555" d="M5.171 106.929A5.825 5.825 0 0 1 6 103.935v-3.719H2.276a11.038 11.038 0 0 0 0 13.427H6v-3.719a5.825 5.825 0 0 1-.829-2.995z" data-name="Path 555" transform="translate(0 -95.896)" style="fill:#fbbd00"/>
    <path id="prefix__Path_556" d="M198.586 373.781L196 376.367l2.586 2.586a10.949 10.949 0 0 0 6.714-2.276v-3.715h-3.716a5.86 5.86 0 0 1-2.998.819z" data-name="Path 556" transform="translate(-187.553 -356.888)" style="fill:#0f9d58"/>
    <path id="prefix__Path_557" d="M56.542 325.477l-3.719 3.723a11.205 11.205 0 0 0 .955 1.088 10.96 10.96 0 0 0 7.8 3.231v-5.171a5.863 5.863 0 0 1-5.036-2.871z" data-name="Path 557" transform="translate(-50.547 -311.45)" style="fill:#31aa52"/>
    <path id="prefix__Path_558" d="M267.032 199.853a11.131 11.131 0 0 0-.181-2l-.1-.53H256v5.177h5.234a5.835 5.835 0 0 1-2.236 2.4l3.716 3.716a11.211 11.211 0 0 0 1.088-.955 10.96 10.96 0 0 0 3.23-7.808z" data-name="Path 558" transform="translate(-244.968 -188.82)" style="fill:#3c79e6"/>
    <path id="prefix__Path_559" d="M202.73 6.888l.457.457 3.657-3.657-.457-.457A10.96 10.96 0 0 0 198.586 0L196 2.586l2.586 2.586a5.823 5.823 0 0 1 4.144 1.716z" data-name="Path 559" transform="translate(-187.553)" style="fill:#cf2d48"/>
    <path id="prefix__Path_560" d="M61.578 5.171V0a10.961 10.961 0 0 0-7.8 3.231 11.2 11.2 0 0 0-.955 1.088l3.719 3.719a5.864 5.864 0 0 1 5.036-2.867z" data-name="Path 560" transform="translate(-50.546)" style="fill:#eb4132"/>
</svg>
